<?xml version="1.0" standalone="no"?>
<!DOCTYPE svg PUBLIC "-//W3C//DTD SVG 20010904//EN"
 "http://www.w3.org/TR/2001/REC-SVG-20010904/DTD/svg10.dtd">
<svg version="1.0" xmlns="http://www.w3.org/2000/svg"
 width="682.000000pt" height="682.000000pt" viewBox="0 0 682.000000 682.000000"
 preserveAspectRatio="xMidYMid meet">
<metadata>
Created by potrace 1.14, written by Peter Selinger 2001-2017
</metadata>
<g transform="translate(0.000000,682.000000) scale(0.100000,-0.100000)"
fill="#000000" stroke="none">
<path d="M3378 5245 c-2 -2 -79 -6 -173 -10 -93 -3 -192 -8 -220 -10 -27 -2
-88 -6 -135 -9 -47 -4 -105 -8 -130 -11 -25 -3 -65 -7 -90 -9 -58 -6 -134 -15
-185 -23 -22 -3 -51 -7 -65 -8 -193 -20 -608 -112 -793 -176 -31 -11 -65 -22
-75 -24 -39 -7 -275 -106 -368 -154 -112 -58 -105 -54 -239 -140 -105 -69
-107 -70 -219 -168 -320 -279 -540 -723 -593 -1198 -15 -137 -8 -438 11 -496
3 -8 7 -27 9 -44 3 -16 17 -66 32 -110 110 -328 362 -574 759 -740 110 -46
301 -110 356 -120 18 -3 36 -8 40 -10 11 -7 229 -53 330 -70 100 -17 126 -21
200 -30 25 -3 56 -8 70 -10 14 -2 57 -7 95 -11 39 -3 77 -8 86 -9 9 -2 66 -6
125 -10 60 -4 125 -8 144 -10 258 -25 1128 -24 1535 0 147 9 414 31 475 40 14
2 50 6 80 10 30 4 66 8 80 10 14 2 45 7 70 10 170 24 506 97 644 140 l49 15
-7 -43 c-4 -23 -9 -57 -12 -74 l-6 -33 576 0 576 0 1 25 c1 14 2 28 4 33 2 10
14 71 20 107 7 39 41 234 54 305 6 30 13 69 15 85 8 48 14 85 31 178 8 48 22
126 30 175 15 83 61 339 70 392 4 21 83 476 88 505 1 7 -525 10 -1575 11
-1138 1 -1578 -2 -1579 -10 0 -6 -2 -18 -4 -26 -5 -24 -66 -362 -70 -390 -2
-14 -15 -89 -29 -166 -14 -78 -26 -149 -26 -158 0 -15 43 -16 453 -16 248 0
508 0 577 0 l125 0 -25 -20 c-49 -37 -177 -99 -280 -135 -110 -38 -346 -89
-463 -100 -37 -3 -77 -8 -88 -10 -116 -23 -799 -23 -974 -1 -16 2 -57 7 -90
10 -327 34 -604 148 -727 298 -126 153 -158 337 -112 642 8 59 52 201 84 278
126 296 388 491 785 583 110 25 215 44 284 51 26 2 64 6 86 9 107 12 262 18
490 19 368 1 583 -16 790 -59 39 -9 73 -15 77 -15 19 -1 189 -65 243 -92 115
-58 216 -154 262 -250 l28 -58 885 3 c583 1 885 5 884 12 -1 6 -4 33 -8 60
-26 221 -139 456 -301 621 -242 248 -679 441 -1195 529 -19 4 -71 12 -115 20
-93 16 -138 22 -218 30 -32 4 -66 8 -76 10 -10 2 -54 6 -97 10 -43 4 -96 9
-116 11 -21 1 -86 6 -145 9 -59 4 -139 9 -178 11 -74 5 -903 13 -907 9z"/>
</g>
</svg>
